<svg xmlns="http://www.w3.org/2000/svg" viewBox="0 0 676 1000" fill-rule="evenodd"><path d="M105.76 992.94C94.75 991.97 85.51 988.92 79.32 984.24C74.09 980.28 72.81 979.01 62.63 967.69C58.90 963.53 54.78 959.43 53.49 958.58C51.24 957.11 51.05 957.19 49.09 960.27C47.96 962.05 46.61 964.15 46.09 964.94C45.31 966.13 43.88 965.55 38.09 961.70C24.79 952.86 6.05 935.48 6.06 932.00C6.06 931.17 6.72 929.63 7.53 928.56C8.33 927.50 10.15 922.77 11.57 918.06C14.06 909.79 14.42 909.23 22.35 901.50C26.86 897.10 32.39 892.25 34.63 890.72C38.15 888.31 39.08 888.08 41.52 889.01C43.07 889.60 44.91 889.87 45.60 889.60C46.28 889.34 49.15 885.38 51.97 880.81C61.50 865.38 77.80 840.59 89.43 823.88C95.80 814.73 101.00 807.00 101.00 806.69C101.00 806.39 97.74 804.48 93.75 802.46C84.53 797.79 75.61 792.49 70.50 788.64C65.62 784.96 55.99 774.88 56.04 773.50C56.06 772.95 58.07 771.03 60.50 769.24C70.62 761.80 87.26 746.35 98.50 733.95C105.10 726.67 110.96 720.22 111.53 719.61C115.95 714.85 126.70 699.01 132.42 688.82C136.23 682.05 142.02 671.83 145.28 666.12C148.54 660.42 153.78 650.97 156.93 645.12C164.03 631.95 168.54 623.77 171.73 618.25C173.59 615.04 173.86 613.91 172.84 613.62C172.10 613.40 169.70 612.74 167.50 612.15C163.46 611.06 155.00 606.13 155.00 604.87C155.00 604.50 157.02 603.00 159.50 601.56C164.07 598.88 172.23 592.27 179.55 585.34C184.84 580.33 195.27 567.94 194.69 567.35C193.90 566.57 182.01 570.97 169.70 576.59C163.18 579.58 157.43 581.77 156.92 581.45C156.41 581.14 156.01 575.62 156.01 569.19C156.03 555.42 158.90 539.30 161.72 537.17C164.40 535.16 171.81 536.37 185.00 540.97C193.17 543.82 198.15 544.98 202.19 544.99C207.85 545.00 207.87 545.01 208.19 548.20L208.50 551.40L224.50 554.57C241.81 558.00 256.34 561.57 259.20 563.11C260.46 563.78 261.00 565.24 261.00 567.99C261.00 570.14 261.41 574.06 261.92 576.70C262.42 579.34 263.34 586.90 263.96 593.50C265.36 608.35 267.80 630.89 270.04 649.75C273.22 676.46 279.07 732.60 280.07 746.00C280.70 754.52 281.40 761.69 281.62 761.92C282.42 762.78 306.92 761.88 320.89 760.48C344.84 758.07 384.71 751.33 413.50 744.82C423.40 742.58 432.74 740.53 434.25 740.26C436.00 739.95 437.00 739.15 437.00 738.04C437.00 736.64 426.33 706.61 418.51 686.00C415.01 676.77 412.85 670.75 402.01 640.00C395.90 622.67 390.51 607.60 390.05 606.50C383.57 591.27 369.00 546.36 369.00 541.61C369.00 539.52 370.33 533.47 371.96 528.16C379.52 503.51 380.64 479.30 374.96 463.14C369.49 447.59 354.45 425.70 336.75 407.57C329.74 400.38 324.00 394.21 324.00 393.86C324.00 393.51 325.69 392.91 327.75 392.52C334.26 391.30 359.09 384.22 369.50 380.61C400.87 369.75 410.28 364.24 438.64 340.11C449.65 330.75 464.13 317.35 465.20 315.54C465.58 314.89 467.52 308.11 469.49 300.47C474.49 281.12 475.54 279.46 486.00 274.33C490.68 272.04 494.98 269.74 495.57 269.21C496.16 268.69 497.22 264.26 497.93 259.38C498.64 254.50 499.82 246.90 500.55 242.50C503.58 224.32 508.22 189.02 507.75 187.78C507.20 186.37 494.31 184.72 400.60 174.06C390.75 172.94 382.52 171.86 382.32 171.65C381.97 171.31 382.37 167.42 385.00 145.75C387.42 125.75 388.06 120.51 389.04 112.75C389.61 108.21 390.47 101.12 390.94 97.00C391.41 92.88 393.42 76.45 395.39 60.50C399.05 31.00 400.44 19.71 401.58 10.15C402.21 4.81 402.22 4.81 405.36 5.33C411.22 6.30 466.23 12.88 540.50 21.50C581.20 26.23 623.73 31.17 635.00 32.49C646.27 33.81 658.54 35.19 662.26 35.56C665.98 35.93 669.27 36.63 669.56 37.10C670.02 37.84 669.25 45.47 666.44 68.00C666.14 70.47 665.48 76.33 664.99 81.00C664.49 85.67 662.93 98.50 661.53 109.50C660.12 120.50 657.87 139.18 656.52 151.00C651.36 196.35 650.69 201.53 649.85 202.45C649.11 203.27 632.75 201.91 625.50 200.43C618.60 199.01 529.45 189.17 528.94 189.76C527.72 191.20 526.00 201.88 522.02 232.75C519.81 249.94 518.00 264.18 518.00 264.38C518.00 264.59 519.94 265.25 522.32 265.85C529.42 267.64 531.80 272.04 529.60 279.33C528.50 283.00 528.57 283.86 530.17 286.50C532.38 290.14 532.52 295.77 530.51 299.64C529.68 301.22 529.01 305.12 529.01 308.35C529.00 317.92 526.98 320.70 514.83 327.89C510.62 330.39 510.93 328.64 508.99 360.00C508.39 369.62 507.48 381.36 506.95 386.07C506.43 390.78 506.00 398.04 506.00 402.20C506.00 407.25 505.56 410.12 504.68 410.85C503.74 411.63 500.90 411.67 494.93 410.98C490.29 410.45 486.10 410.01 485.62 410.01C484.61 410.00 485.42 393.48 487.88 364.21C488.81 353.04 489.42 343.76 489.23 343.56C488.18 342.52 484.98 344.56 484.09 346.85C481.52 353.47 467.61 377.07 456.60 393.50C444.38 411.72 429.06 427.95 406.47 446.57L391.27 459.11L394.88 467.30C398.46 475.40 398.50 475.67 398.50 489.00C398.50 502.55 397.09 509.97 392.52 520.50C389.84 526.66 386.17 536.64 385.06 540.77C383.93 544.97 384.09 545.49 394.39 570.27C400.16 584.15 406.23 599.19 407.90 603.71C409.56 608.23 413.45 618.13 416.54 625.71C429.09 656.52 450.95 715.32 456.99 734.50C458.73 740.00 460.32 745.07 460.54 745.76C460.76 746.45 460.06 747.57 458.97 748.25C457.89 748.93 457.00 749.99 457.00 750.61C457.00 751.24 460.39 759.92 464.54 769.90C468.69 779.89 471.87 788.38 471.62 788.78C471.37 789.18 462.65 793.51 452.24 798.41L433.33 807.33L440.76 823.41C453.38 850.75 465.59 875.16 470.55 883.00C473.17 887.12 478.14 895.00 481.59 900.50C485.05 906.00 488.60 911.30 489.47 912.28C491.59 914.65 493.99 913.28 495.41 908.87C496.38 905.87 496.94 905.47 500.50 905.22C502.70 905.06 511.21 906.30 519.41 907.97C539.17 911.99 541.76 911.91 554.81 906.89C581.33 896.70 585.67 895.96 590.30 900.79C593.81 904.45 594.64 908.85 592.59 912.83C589.17 919.44 571.92 938.62 561.28 947.65C550.76 956.57 544.32 958.96 524.00 961.48C507.56 963.52 501.66 964.88 502.86 966.36C503.37 966.99 504.76 969.25 505.96 971.40C508.54 976.04 508.93 975.67 496.50 980.45C486.32 984.37 474.10 987.62 465.88 988.58L460.33 989.24L454.03 979.97C444.97 966.62 442.93 961.01 442.27 947.47C441.72 936.38 441.72 936.36 444.36 934.29C445.81 933.15 447.00 931.88 447.00 931.46C447.00 931.05 434.71 918.29 419.68 903.11C385.57 868.63 378.48 859.85 368.05 839.10L364.04 831.13L360.77 832.07C354.15 833.99 326.15 840.01 314.50 842.02C291.57 845.98 249.56 845.71 220.50 841.42C215.00 840.61 203.75 838.42 195.50 836.55L180.50 833.14L172.50 839.26C156.21 851.72 127.29 874.54 120.50 880.28C116.65 883.54 112.38 887.15 111.00 888.30C109.62 889.45 102.10 895.98 94.28 902.82C82.02 913.56 80.21 915.52 81.07 917.13C82.28 919.39 82.12 919.39 86.38 917.36C88.27 916.46 90.48 915.97 91.29 916.28C92.60 916.78 95.79 922.36 107.74 945.00C112.30 953.65 117.80 958.46 131.25 965.58C150.73 975.88 157.57 982.25 155.07 987.74C153.69 990.78 151.08 991.66 139.65 992.93C129.06 994.11 118.96 994.12 105.76 992.94ZM25.45 644.59C21.34 642.81 14.60 634.96 11.44 628.28C9.20 623.55 8.84 621.41 8.74 612.16C8.53 592.21 11.98 587.60 40.26 569.98L49.02 564.52L63.22 543.18L77.41 521.83L74.71 517.02C71.50 511.32 71.46 510.95 73.80 508.44C74.79 507.37 78.92 502.23 82.97 497.00C87.03 491.77 92.84 484.57 95.90 481.00C104.27 471.20 132.89 442.88 146.94 430.48C153.78 424.44 162.58 416.57 166.49 413.00C170.40 409.43 177.81 402.90 182.96 398.50C188.10 394.10 194.50 388.60 197.16 386.28C203.59 380.68 210.61 378.62 221.41 379.19C228.23 379.55 230.52 380.16 236.00 383.06C256.11 393.70 278.34 430.81 285.63 465.92C287.58 475.32 287.80 497.41 286.03 505.00C282.85 518.59 275.79 536.78 273.04 538.48C270.06 540.31 246.03 543.14 228.66 543.70L209.81 544.30L207.43 541.40C199.61 531.91 193.96 521.91 189.56 509.75C188.61 507.14 187.35 505.00 186.75 505.00C184.94 505.00 163.03 516.92 154.43 522.58C144.29 529.25 139.74 534.19 133.53 545.28C127.88 555.37 126.78 555.97 117.59 554.08L111.59 552.84L103.04 561.72C77.45 588.34 78.00 587.66 78.00 592.99C78.00 600.24 76.03 613.04 74.44 616.11C71.62 621.57 56.92 641.82 55.35 642.42C53.26 643.22 49.22 640.58 47.81 637.49C46.77 635.19 47.37 630.20 49.53 623.25C50.66 619.63 48.11 620.52 43.45 625.39C40.99 627.96 38.28 632.28 36.90 635.83C35.61 639.17 34.09 642.53 33.52 643.30C31.90 645.52 28.76 646.02 25.45 644.59ZM298.36 430.75C283.86 407.69 275.21 397.40 261.88 387.34C251.94 379.85 245.20 376.03 238.24 373.95C233.53 372.54 233.80 373.70 235.55 362.48C235.85 360.55 235.84 358.55 235.53 358.04C235.20 357.52 232.60 357.93 229.48 359.01C216.85 363.35 198.91 364.01 188.84 360.50C183.55 358.65 177.80 353.54 175.61 348.75C173.66 344.46 172.01 338.14 172.01 334.87L172.00 332.25L159.57 337.57C134.58 348.26 115.98 353.15 108.25 351.07C104.55 350.07 104.00 349.56 104.00 347.16C104.00 338.32 116.94 323.81 140.33 306.40C148.12 300.60 154.81 295.10 155.18 294.18C155.55 293.25 155.89 291.26 155.93 289.75C156.01 286.42 154.43 286.23 149.09 288.95C142.95 292.09 136.28 293.48 134.50 292.00C130.98 289.08 133.92 280.58 140.61 274.35L145.14 270.13L142.01 268.51C136.41 265.61 131.10 260.06 130.41 256.37C129.15 249.67 135.33 246.69 145.07 249.30C148.06 250.10 151.18 250.92 152.00 251.13C153.09 251.40 153.57 250.53 153.76 248.00C154.32 240.50 155.14 237.96 157.50 236.41C158.92 235.48 160.75 235.10 161.97 235.49C164.36 236.25 167.52 241.95 168.53 247.30C169.42 252.05 170.73 252.03 171.56 247.25C173.04 238.71 177.81 227.73 182.15 222.88C188.23 216.08 198.63 209.96 218.69 201.40C227.98 197.43 230.33 196.84 238.85 196.34C244.57 196.00 250.74 196.24 254.00 196.92C257.02 197.55 260.40 198.21 261.50 198.40C262.60 198.59 263.50 198.84 263.50 198.95C263.50 199.06 264.18 199.30 265.00 199.47C272.36 201.03 291.00 209.33 291.00 211.06C291.00 211.48 278.62 218.46 263.50 226.56C248.38 234.66 236.00 241.62 236.00 242.01C236.00 242.77 243.81 246.00 245.63 246.00C246.66 246.00 260.61 238.33 272.00 231.50C283.64 224.52 314.04 210.03 325.50 205.98C332.10 203.66 338.18 201.52 339.00 201.23C342.20 200.10 345.74 199.16 353.00 197.51C361.41 195.61 376.00 195.56 380.45 197.42C392.45 202.43 384.61 217.75 361.11 235.22C352.90 241.32 349.43 243.67 338.20 250.67L335.90 252.11L338.11 255.80C341.56 261.58 341.63 261.59 346.44 257.16C348.92 254.87 351.61 253.00 352.41 253.00C354.60 253.00 356.82 255.67 358.06 259.79C359.09 263.24 359.03 278.64 357.97 281.98C357.65 282.97 359.36 284.43 363.21 286.46C369.97 290.03 371.79 292.65 369.94 296.12C368.24 299.32 366.47 300.67 360.11 303.60L354.73 306.09L355.31 311.30C355.64 314.16 356.41 320.32 357.03 325.00C358.93 339.31 356.61 347.99 349.58 352.80C347.76 354.05 342.73 356.44 338.39 358.11C323.28 363.92 313.59 370.93 309.50 379.00C307.31 383.33 305.91 390.35 307.05 391.31C307.30 391.52 309.30 392.89 311.50 394.35C317.21 398.15 325.35 406.38 331.46 414.50C336.86 421.69 341.50 429.83 340.67 430.66C340.28 431.06 306.05 434.90 302.26 434.98C301.58 434.99 299.83 433.09 298.36 430.75ZM333.91 291.54C338.42 289.22 340.50 283.78 340.45 274.50C340.42 268.97 339.88 265.51 338.71 263.31C336.82 259.77 333.41 257.00 330.93 257.00C327.92 257.00 322.69 261.43 321.50 264.97C320.12 269.11 319.33 269.34 300.50 270.92C278.33 272.78 278.00 272.85 278.00 275.53C278.00 276.83 278.36 278.10 278.80 278.38C279.52 278.82 296.80 277.93 313.71 276.58L319.92 276.08L320.60 279.79C321.51 284.84 323.45 288.42 326.61 290.91C329.77 293.39 330.26 293.44 333.91 291.54ZM172.10 286.08C173.95 283.58 174.74 283.25 177.65 283.72C183.92 284.74 187.22 278.99 182.96 274.46C180.99 272.36 180.98 272.20 182.70 269.21C184.44 266.18 184.42 266.08 182.06 263.56C179.36 260.69 175.89 260.25 173.64 262.50C171.73 264.41 170.00 264.42 170.00 262.53C170.00 260.30 164.95 258.07 162.23 259.10C159.33 260.19 158.57 262.21 159.74 265.72C160.59 268.27 160.41 268.58 157.58 269.50C153.41 270.85 152.77 275.15 156.39 277.52C157.88 278.50 159.74 278.90 160.95 278.52C162.78 277.93 163.00 278.29 163.00 281.86C163.00 288.95 168.20 291.36 172.10 286.08ZM353.58 274.45C354.23 270.98 353.43 261.50 352.33 259.73C352.03 259.25 350.71 259.86 349.39 261.10C346.35 263.96 346.17 270.12 348.99 274.75C351.54 278.94 352.75 278.86 353.58 274.45ZM211.55 268.55C212.90 267.20 214.01 265.28 214.02 264.30C214.02 263.31 214.43 261.87 214.92 261.10C215.65 259.94 216.28 260.08 218.54 261.85C221.75 264.38 224.05 264.54 227.94 262.53C231.18 260.85 233.09 256.49 231.95 253.38C231.20 251.35 227.18 247.63 224.70 246.67C223.97 246.38 224.98 244.80 227.25 242.65C232.09 238.07 232.31 234.28 227.92 230.59C224.05 227.33 221.28 227.32 216.49 230.57C212.71 233.13 211.06 232.76 211.02 229.32C210.99 227.17 205.81 224.00 202.32 224.00C198.34 224.00 194.00 227.70 194.00 231.09C194.00 232.28 194.94 234.78 196.08 236.63L198.16 240.00L195.03 240.00C193.31 240.00 190.57 240.69 188.95 241.53C186.44 242.82 186.00 243.64 186.00 246.97C186.00 251.98 188.66 254.00 195.26 254.00C199.71 254.00 199.99 254.15 199.04 255.93C198.47 257.00 198.00 259.64 198.00 261.80C198.00 269.68 206.29 273.80 211.55 268.55Z"></path></svg>