<svg xmlns="http://www.w3.org/2000/svg" viewBox="0 0 526 500" fill-rule="evenodd"><path d="M249.50 495.29C248.40 495.02 247.12 494.45 246.66 494.01C246.20 493.58 247.22 488.27 248.94 482.22C258.19 449.54 257.94 432.35 247.91 412.27C240.84 398.11 231.64 385.65 217.62 371.24C211.06 364.49 205.87 358.80 206.10 358.58C206.32 358.36 210.55 357.19 215.50 355.98C234.57 351.32 263.80 341.08 277.20 334.37C284.32 330.80 306.12 313.69 321.60 299.51C327.23 294.36 333.99 287.83 334.42 287.12C334.72 286.64 336.51 280.34 338.40 273.11C340.28 265.89 342.68 258.52 343.72 256.74C345.06 254.44 348.13 252.19 354.25 249.00L362.89 244.50L363.91 238.00C364.46 234.43 365.63 226.10 366.49 219.50C368.24 206.16 369.28 199.00 371.50 185.07C373.24 174.14 373.39 170.00 372.04 170.00C371.51 170.00 360.14 168.63 346.79 166.96C333.43 165.29 315.30 163.03 306.50 161.93C297.70 160.84 285.20 159.51 278.72 158.98C272.25 158.45 265.10 157.72 262.84 157.36L258.74 156.70L259.37 150.60C259.72 147.25 260.47 141.12 261.03 137.00C261.60 132.88 262.50 125.22 263.02 120.00C263.55 114.78 264.39 107.35 264.89 103.50C265.40 99.65 266.77 88.17 267.95 78.00C269.13 67.83 270.76 54.33 271.58 48.00C272.40 41.67 273.74 31.10 274.55 24.50C277.30 2.14 276.85 4.00 279.57 4.00C280.92 4.00 282.81 4.43 283.76 4.94C285.60 5.94 330.93 11.64 344.50 12.57C348.90 12.87 361.05 14.21 371.50 15.54C420.87 21.81 447.13 24.99 454.00 25.54C458.12 25.87 471.85 27.43 484.50 29.00C497.15 30.57 510.31 32.15 513.75 32.52C521.20 33.33 520.80 31.13 517.99 55.85C516.88 65.56 515.30 79.58 514.48 87.00C513.65 94.42 512.56 103.65 512.04 107.50C510.69 117.64 509.38 128.29 505.96 157.00C504.29 171.03 502.76 182.98 502.56 183.56C502.32 184.28 499.96 184.37 495.35 183.85C491.58 183.42 483.32 182.61 477.00 182.05C470.68 181.49 449.15 178.99 429.16 176.51C409.18 174.02 392.47 172.21 392.04 172.47C391.61 172.74 390.95 175.33 390.56 178.23C390.17 181.13 389.25 188.00 388.51 193.50C381.77 243.99 381.88 240.72 386.91 242.38C388.78 242.99 391.20 244.70 392.29 246.17C394.06 248.55 394.15 249.35 393.12 253.44C392.17 257.23 392.23 258.54 393.48 260.97C395.37 264.62 395.38 269.71 393.50 273.00C392.70 274.39 392.06 278.21 392.04 281.62C391.99 288.98 390.28 291.59 382.08 296.76C379.01 298.71 376.34 300.42 376.15 300.58C375.96 300.73 375.43 306.63 374.97 313.68C372.65 349.46 370.82 373.49 370.35 374.25C370.06 374.71 367.84 374.85 365.41 374.55C350.71 372.72 352.00 373.19 351.99 369.69C351.99 367.93 352.46 361.10 353.05 354.50C355.64 325.16 356.57 312.90 356.20 312.53C354.85 311.18 352.20 314.79 345.46 327.15C331.87 352.04 319.29 369.88 305.10 384.35C295.82 393.81 271.80 414.86 267.27 417.49C267.14 417.57 268.49 420.97 270.27 425.06C273.37 432.19 273.50 433.03 273.49 445.50C273.47 459.59 273.89 457.90 263.61 485.50C262.17 489.34 261.00 493.28 261.00 494.25C261.00 495.69 260.16 495.98 256.25 495.88C253.64 495.82 250.60 495.55 249.50 495.29ZM153.50 474.17C114.79 459.65 81.07 438.97 47.73 409.33C38.52 401.14 37.14 399.54 38.23 398.22C39.92 396.17 61.72 376.56 79.87 360.77C96.65 346.16 100.04 344.53 112.37 345.15C125.80 345.83 137.35 354.35 149.14 372.28C159.52 388.05 165.02 400.58 169.67 419.00C174.13 436.68 173.14 459.50 167.28 474.25C166.45 476.31 165.27 477.98 164.64 477.96C164.01 477.94 159.00 476.23 153.50 474.17ZM182.35 391.75C174.25 378.88 172.18 375.89 166.98 369.50C163.84 365.65 159.30 360.69 156.89 358.47C146.95 349.35 131.50 340.03 126.25 340.01C123.66 340.00 123.71 340.32 124.98 332.61C125.51 329.37 125.72 326.36 125.45 325.92C125.18 325.48 122.38 326.01 119.23 327.10C111.84 329.64 94.58 330.70 86.82 329.08C75.95 326.80 70.00 320.06 68.44 308.25C68.05 305.36 67.34 303.00 66.86 303.00C66.37 303.00 60.24 305.41 53.24 308.35C40.42 313.73 32.38 316.65 27.91 317.53C17.16 319.65 12.99 320.05 9.92 319.26C5.80 318.19 5.25 316.26 7.41 310.59C10.46 302.60 21.25 291.89 41.50 276.74C51.45 269.29 53.00 267.54 53.00 263.77C53.00 260.34 53.13 260.33 43.11 264.52C35.83 267.56 31.98 266.95 32.02 262.77C32.06 258.88 35.58 252.49 39.44 249.31L43.14 246.26L38.12 243.17C31.99 239.40 29.76 236.21 30.18 231.83C30.76 225.76 35.96 224.85 48.75 228.58C50.82 229.18 51.00 228.91 51.00 225.18C51.00 219.57 52.49 216.19 55.60 214.77C57.97 213.69 58.47 213.84 60.58 216.30C61.87 217.80 63.44 220.94 64.07 223.27C65.83 229.86 66.16 229.76 68.12 222.04C72.46 204.94 78.69 198.19 99.50 188.04C115.44 180.26 122.46 178.58 136.00 179.34C141.78 179.66 148.24 180.43 150.37 181.04C152.51 181.66 155.18 182.34 156.31 182.56C159.21 183.12 176.00 191.18 176.00 192.02C176.00 192.40 164.46 198.94 150.35 206.55L124.69 220.40L128.60 222.13C130.74 223.08 133.14 223.89 133.92 223.93C134.71 223.97 142.37 219.99 150.95 215.09C182.22 197.23 206.75 186.03 223.00 182.18C244.70 177.05 256.66 177.21 260.98 182.70C263.52 185.93 263.51 187.09 260.87 192.25C256.51 200.80 237.90 217.19 222.62 225.93C219.53 227.70 217.00 229.35 217.00 229.59C217.00 229.84 218.15 231.86 219.55 234.09L222.11 238.13L226.12 234.51C231.08 230.03 233.83 230.16 236.25 235.00C238.21 238.92 238.67 251.11 237.03 255.43C236.13 257.79 236.38 258.15 240.28 260.11C245.98 262.98 248.00 264.90 248.00 267.47C248.00 270.13 243.91 274.07 238.13 276.97C233.19 279.45 233.45 277.13 235.98 295.94C238.39 313.92 235.04 319.57 217.90 326.43C202.60 332.56 195.48 338.39 191.21 348.30C189.06 353.27 189.68 355.52 193.97 358.36C199.86 362.26 209.09 371.70 213.67 378.50C218.63 385.87 221.33 391.01 220.60 391.73C220.16 392.17 190.60 395.81 186.26 395.96C185.58 395.98 183.82 394.09 182.35 391.75ZM215.05 265.31C219.07 262.94 220.50 258.76 220.49 249.49C220.48 242.74 220.11 240.97 218.17 238.24C216.90 236.46 214.82 234.74 213.54 234.42C210.00 233.53 205.33 236.46 203.87 240.48C202.39 244.57 203.16 244.36 181.20 246.48C172.78 247.29 165.47 248.21 164.95 248.53C163.78 249.25 163.70 252.69 164.83 253.40C165.55 253.84 179.49 253.05 196.69 251.60C201.83 251.16 201.88 251.18 202.55 254.33C203.52 258.91 206.92 264.65 209.38 265.84C212.18 267.19 211.80 267.23 215.05 265.31ZM67.99 260.29C69.76 258.04 70.78 257.63 74.06 257.87C77.41 258.11 78.14 257.80 78.87 255.83C79.89 253.09 79.34 250.99 77.14 249.23C75.84 248.18 75.77 247.60 76.77 245.99C78.43 243.34 78.32 240.51 76.50 239.00C74.62 237.44 69.71 237.36 69.21 238.88C68.75 240.25 66.00 240.38 66.00 239.02C66.00 238.49 64.86 237.30 63.46 236.38C61.38 235.02 60.45 234.93 58.34 235.89C56.01 236.95 55.82 237.45 56.39 241.03C56.93 244.43 56.76 245.00 55.21 245.00C52.91 245.00 51.00 246.89 51.00 249.18C51.00 251.35 55.16 254.24 57.67 253.81C59.07 253.57 59.42 254.04 59.18 255.81C58.75 258.83 61.53 263.00 63.95 263.00C65.00 263.00 66.81 261.78 67.99 260.29ZM232.98 245.82C232.99 243.24 232.53 239.90 231.96 238.39C230.93 235.68 230.89 235.67 229.03 237.57C225.93 240.75 225.98 246.43 229.14 250.45C231.82 253.86 232.96 252.48 232.98 245.82ZM104.44 243.78C105.30 242.56 106.00 240.53 106.00 239.28C106.00 236.65 106.74 236.49 109.44 238.53C114.43 242.30 122.33 238.90 122.33 232.98C122.33 230.34 121.53 228.98 118.42 226.37C114.60 223.17 114.55 223.05 116.50 221.57C117.60 220.74 118.85 220.05 119.27 220.03C121.17 219.95 121.98 214.86 120.53 212.06C118.02 207.20 111.94 206.50 107.16 210.52L104.17 213.04L103.50 210.02C102.68 206.28 99.57 204.00 95.28 204.00C89.16 204.00 86.36 209.33 89.41 215.18C91.08 218.38 90.63 219.00 86.66 219.00C80.11 219.00 77.63 225.99 82.75 230.02C84.93 231.73 86.30 232.05 89.37 231.56C92.83 231.00 93.15 231.13 92.41 232.72C90.95 235.87 91.50 241.79 93.45 243.95C96.09 246.86 102.35 246.77 104.44 243.78Z"></path></svg>